<svg id="レイヤー_1" data-name="レイヤー 1" xmlns="http://www.w3.org/2000/svg" viewBox="0 0 352.35 54.07"><title>loam-type</title><rect x="38.11" y="0.34" width="10.97" height="47.71" rx="1.96" ry="1.96"/><path d="M95.65.34H88.6a2,2,0,0,0-2,2v26L66.57,1.21,66.41,1h0L66.29.88l0,0L66.14.76l0,0L66,.65l-.06,0-.1-.06-.06,0L65.65.48l-.06,0-.12,0-.06,0-.12,0h-.08l-.1,0H57.89a2,2,0,0,0-2,2V46.09a2,2,0,0,0,2,2h7a2,2,0,0,0,2-2v-26L87,47.22a1.94,1.94,0,0,0,.5.49h0l.12.07.06,0,.09,0,.09,0,.06,0,.14,0h0a2.09,2.09,0,0,0,.51.07h7.05a2,2,0,0,0,1.95-2V2.3A2,2,0,0,0,95.65.34Z"/><path d="M30.12,37.08H11V2.3a2,2,0,0,0-2-2H2a2,2,0,0,0-2,2V46.09H0a2,2,0,0,0,.55,1.36l0,0,0,0A2,2,0,0,0,2,48.05H30.12a2,2,0,0,0,2-2V39A2,2,0,0,0,30.12,37.08Z"/><path d="M134.58.34H106.41a1.91,1.91,0,0,0-1.35.56l0,0,0,0a2,2,0,0,0-.54,1.35h0V46.09h0a2,2,0,0,0,.55,1.36l0,0,0,0a1.94,1.94,0,0,0,1.35.55h28.17a2,2,0,0,0,2-2V39a2,2,0,0,0-2-2H115.43v-7.4h19.15a2,2,0,0,0,2-2v-7a2,2,0,0,0-2-2H115.43v-7.4h19.15a2,2,0,0,0,2-2v-7A2,2,0,0,0,134.58.34Z"/><path d="M265.69,20.23h-3.61a.62.62,0,0,1-.48-.18.91.91,0,0,1-.22-.41l-1.14-3.13h-7.38l-1.12,3.13a1.36,1.36,0,0,1-.23.41.58.58,0,0,1-.47.18h-3.43c-.39,0-.52-.19-.38-.56l6.83-17.52a1.08,1.08,0,0,1,.33-.44,1.16,1.16,0,0,1,.72-.2h3.11a1.06,1.06,0,0,1,.68.2,1.47,1.47,0,0,1,.37.44l6.83,17.52C266.23,20,266.1,20.23,265.69,20.23Zm-6.86-7.62-2.28-6.3-2.29,6.3h4.57Z"/><path d="M276.59,16a.93.93,0,0,1,.53-.14.71.71,0,0,1,.54.34l1.19,1.77a.64.64,0,0,1,.12.58.92.92,0,0,1-.32.47,8.1,8.1,0,0,1-2.09,1.09,7.41,7.41,0,0,1-2.47.42,7.13,7.13,0,0,1-2.84-.57,7.34,7.34,0,0,1-3.87-3.8,6.7,6.7,0,0,1-.59-2.78,7,7,0,0,1,.57-2.8,7.2,7.2,0,0,1,1.54-2.3,7.34,7.34,0,0,1,2.28-1.54A6.89,6.89,0,0,1,274,6.13a7.62,7.62,0,0,1,2.62.43,7.16,7.16,0,0,1,2.12,1.17.88.88,0,0,1,.27.48.67.67,0,0,1-.16.6l-1.3,1.62a.61.61,0,0,1-.53.31,1.24,1.24,0,0,1-.55-.16,4.19,4.19,0,0,0-1-.48,4.12,4.12,0,0,0-1.21-.16,3.19,3.19,0,0,0-2.39,1,3.35,3.35,0,0,0-.92,2.45,3.26,3.26,0,0,0,.93,2.41,3.22,3.22,0,0,0,2.38.93,3.86,3.86,0,0,0,1.25-.19A4.89,4.89,0,0,0,276.59,16Z"/><path d="M289.94,16a1,1,0,0,1,.54-.14.74.74,0,0,1,.54.34l1.19,1.77a.66.66,0,0,1,.11.58A.82.82,0,0,1,292,19a7.94,7.94,0,0,1-2.09,1.09,7.37,7.37,0,0,1-2.47.42,7,7,0,0,1-2.83-.57,7.4,7.4,0,0,1-3.88-3.8,6.69,6.69,0,0,1-.58-2.78,7.27,7.27,0,0,1,2.11-5.1,7.11,7.11,0,0,1,2.28-1.54,6.89,6.89,0,0,1,2.79-.57,7.52,7.52,0,0,1,2.61.43,7,7,0,0,1,2.12,1.17.89.89,0,0,1,.28.48.7.7,0,0,1-.16.6l-1.31,1.62a.6.6,0,0,1-.52.31,1.17,1.17,0,0,1-.55-.16,4.25,4.25,0,0,0-1-.48,4.05,4.05,0,0,0-1.2-.16,3.19,3.19,0,0,0-2.4,1,3.34,3.34,0,0,0-.91,2.45,3.26,3.26,0,0,0,.93,2.41,3.22,3.22,0,0,0,2.38.93,3.94,3.94,0,0,0,1.25-.19A5,5,0,0,0,289.94,16Z"/><path d="M300.82,6.05a7.22,7.22,0,0,1,2.83.56A7.36,7.36,0,0,1,306,8.17a7.56,7.56,0,0,1,1.57,2.31,7.15,7.15,0,0,1,0,5.64A7.33,7.33,0,0,1,303.65,20,7.31,7.31,0,0,1,298,20a7.5,7.5,0,0,1-2.31-1.55,7.36,7.36,0,0,1-1.56-2.31,7.38,7.38,0,0,1,0-5.64A7.33,7.33,0,0,1,298,6.61,7.22,7.22,0,0,1,300.82,6.05Zm0,10.57a2.89,2.89,0,0,0,2.19-.94,3.28,3.28,0,0,0,.66-1.06,3.76,3.76,0,0,0,.23-1.31,3.89,3.89,0,0,0-.23-1.34,3.39,3.39,0,0,0-.66-1.06,3,3,0,0,0-2.19-.94,2.86,2.86,0,0,0-1.22.25,2.74,2.74,0,0,0-1,.69A3.53,3.53,0,0,0,298,12a3.89,3.89,0,0,0-.23,1.34,3.76,3.76,0,0,0,.23,1.31,3.41,3.41,0,0,0,.64,1.06,2.9,2.9,0,0,0,1,.7A3,3,0,0,0,300.82,16.62Z"/><path d="M323.4,14a7.17,7.17,0,0,1-.47,2.64,5.54,5.54,0,0,1-1.32,2,5.7,5.7,0,0,1-2.08,1.28,7.72,7.72,0,0,1-2.7.45,7.82,7.82,0,0,1-2.73-.45A5.79,5.79,0,0,1,312,18.61a5.54,5.54,0,0,1-1.32-2,7.17,7.17,0,0,1-.47-2.64V7.06a.75.75,0,0,1,.76-.75h2.62a.75.75,0,0,1,.75.75V13.6a3,3,0,0,0,.68,2.06,2.29,2.29,0,0,0,1.79.76,2.22,2.22,0,0,0,1.77-.76,3,3,0,0,0,.67-2.06V7.06a.75.75,0,0,1,.76-.75h2.61a.72.72,0,0,1,.54.22.69.69,0,0,1,.22.53Z"/><path d="M339,20a.77.77,0,0,1-.54.22h-2.7a.75.75,0,0,1-.76-.76V12.58a2.64,2.64,0,0,0-.62-1.8,2.12,2.12,0,0,0-1.64-.69,2.07,2.07,0,0,0-.66.11,2.34,2.34,0,0,0-1.25,1,1.89,1.89,0,0,0-.27.93v7.38a.75.75,0,0,1-.76.76H327a.75.75,0,0,1-.75-.76V7.12a.73.73,0,0,1,.22-.54.72.72,0,0,1,.53-.21h2.82a.76.76,0,0,1,.54.21.77.77,0,0,1,.22.54V8.63a3.47,3.47,0,0,1,1.51-1.84,4.15,4.15,0,0,1,2.21-.66,4.47,4.47,0,0,1,3.61,1.56A6.37,6.37,0,0,1,339.22,12v7.52A.77.77,0,0,1,339,20Z"/><path d="M352.34,18.8a.7.7,0,0,1-.23.35,6.39,6.39,0,0,1-1.7.9,5.72,5.72,0,0,1-2,.35A4.49,4.49,0,0,1,344.83,19a6.07,6.07,0,0,1-1.27-4.13V9.91H341.7a.7.7,0,0,1-.53-.23.77.77,0,0,1-.22-.55v-2a.77.77,0,0,1,.22-.55.7.7,0,0,1,.53-.23h1.89V3.61a.74.74,0,0,1,.22-.54.72.72,0,0,1,.54-.22H347a.75.75,0,0,1,.76.76V6.34h2.79a.74.74,0,0,1,.54.23.81.81,0,0,1,.21.55v2a.81.81,0,0,1-.21.55.74.74,0,0,1-.54.23h-2.73v4.8c0,1.24.48,1.86,1.45,1.86a1.8,1.8,0,0,0,.6-.09,2.92,2.92,0,0,0,.47-.23.66.66,0,0,1,.45-.11.59.59,0,0,1,.37.28l1.13,1.92A.58.58,0,0,1,352.34,18.8Z"/><path d="M164.94,10.87a8.88,8.88,0,0,1-.74,3.62,9.44,9.44,0,0,1-2,3,9.61,9.61,0,0,1-3,2,9.25,9.25,0,0,1-7.25,0,9.35,9.35,0,0,1-5-5,9.22,9.22,0,0,1,0-7.24,9.35,9.35,0,0,1,5-5,9.25,9.25,0,0,1,7.25,0,9.35,9.35,0,0,1,5,5A8.93,8.93,0,0,1,164.94,10.87Zm-4.48,0a5.46,5.46,0,0,0-.37-2A5.21,5.21,0,0,0,159,7.18a5,5,0,0,0-1.54-1.12,4.31,4.31,0,0,0-1.88-.42,4.48,4.48,0,0,0-1.89.4,4.94,4.94,0,0,0-1.56,1.11,5.36,5.36,0,0,0-1,1.66,5.61,5.61,0,0,0,0,4.06,5.36,5.36,0,0,0,1,1.66,4.94,4.94,0,0,0,1.56,1.11,4.48,4.48,0,0,0,1.89.4,4.44,4.44,0,0,0,1.88-.4A5,5,0,0,0,159,14.53a5.23,5.23,0,0,0,1.05-1.64A5.41,5.41,0,0,0,160.46,10.87Z"/><path d="M178.33.93a.69.69,0,0,1,.3.45.77.77,0,0,1-.1.6l-1.07,1.71A.69.69,0,0,1,177,4a1.06,1.06,0,0,1-.51-.06,3.37,3.37,0,0,0-1.16-.23,1.87,1.87,0,0,0-1.51.64,2.64,2.64,0,0,0-.56,1.8v.09H176a.73.73,0,0,1,.76.75V9.15a.75.75,0,0,1-.76.76h-2.79v9.47a.76.76,0,0,1-.21.54.77.77,0,0,1-.54.22H170a.77.77,0,0,1-.54-.22.76.76,0,0,1-.21-.54V9.91h-1.6a.72.72,0,0,1-.54-.22.7.7,0,0,1-.22-.54V7a.73.73,0,0,1,.22-.54.75.75,0,0,1,.54-.21h1.6V6.19a6.71,6.71,0,0,1,1.52-4.56A5.17,5.17,0,0,1,174.78,0a7.3,7.3,0,0,1,2,.25A5.47,5.47,0,0,1,178.33.93Z"/><path d="M190,.93a.73.73,0,0,1,.3.45.77.77,0,0,1-.1.6l-1.07,1.71a.69.69,0,0,1-.48.35,1.06,1.06,0,0,1-.51-.06A3.41,3.41,0,0,0,187,3.75a1.9,1.9,0,0,0-1.52.64,2.69,2.69,0,0,0-.55,1.8v.09h2.79a.75.75,0,0,1,.54.21.73.73,0,0,1,.22.54V9.15a.7.7,0,0,1-.22.54.72.72,0,0,1-.54.22h-2.79v9.47a.75.75,0,0,1-.75.76h-2.53a.75.75,0,0,1-.76-.76V9.91h-1.59a.75.75,0,0,1-.76-.76V7a.73.73,0,0,1,.76-.75h1.59V6.19a6.76,6.76,0,0,1,1.53-4.56A5.17,5.17,0,0,1,186.46,0a7.18,7.18,0,0,1,2,.25A5.54,5.54,0,0,1,190,.93Z"/><path d="M193.73,0a2.35,2.35,0,0,1,1.73.7,2.26,2.26,0,0,1,.71,1.71,2.3,2.3,0,0,1-.71,1.72,2.38,2.38,0,0,1-1.73.69,2.3,2.3,0,0,1-1.7-.69,2.39,2.39,0,0,1-.68-1.72A2.35,2.35,0,0,1,192,.7,2.27,2.27,0,0,1,193.73,0Zm2.1,19.38a.75.75,0,0,1-.76.76H192.4a.75.75,0,0,1-.76-.76V7a.73.73,0,0,1,.76-.75h2.67a.76.76,0,0,1,.54.21.77.77,0,0,1,.22.54Z"/><path d="M207.9,16a1,1,0,0,1,.54-.14.74.74,0,0,1,.54.34l1.19,1.77a.66.66,0,0,1,.11.58A.82.82,0,0,1,210,19a7.94,7.94,0,0,1-2.09,1.09,7.37,7.37,0,0,1-2.47.42,7.08,7.08,0,0,1-2.83-.57,7.4,7.4,0,0,1-3.88-3.8,6.69,6.69,0,0,1-.58-2.78,7.27,7.27,0,0,1,2.11-5.1A7.22,7.22,0,0,1,202.5,6.7a6.89,6.89,0,0,1,2.79-.57,7.52,7.52,0,0,1,2.61.43A7,7,0,0,1,210,7.73a.89.89,0,0,1,.28.48.7.7,0,0,1-.16.6l-1.31,1.62a.6.6,0,0,1-.52.31,1.17,1.17,0,0,1-.55-.16,4.25,4.25,0,0,0-1-.48,4.05,4.05,0,0,0-1.2-.16,3.19,3.19,0,0,0-2.4,1,3.34,3.34,0,0,0-.91,2.45,3.26,3.26,0,0,0,.93,2.41,3.22,3.22,0,0,0,2.38.93,3.94,3.94,0,0,0,1.25-.19A4.82,4.82,0,0,0,207.9,16Z"/><path d="M214.69,0a2.37,2.37,0,0,1,1.73.7,2.3,2.3,0,0,1,.71,1.71,2.34,2.34,0,0,1-.71,1.72,2.4,2.4,0,0,1-1.73.69,2.28,2.28,0,0,1-1.7-.69,2.35,2.35,0,0,1-.68-1.72A2.31,2.31,0,0,1,213,.7,2.26,2.26,0,0,1,214.69,0Zm2.09,19.38a.75.75,0,0,1-.75.76h-2.68a.77.77,0,0,1-.54-.22.76.76,0,0,1-.21-.54V7a.72.72,0,0,1,.75-.75H216a.72.72,0,0,1,.53.21.73.73,0,0,1,.22.54Z"/><path d="M233.68,19.36a.81.81,0,0,1-.21.55.74.74,0,0,1-.54.23h-2.85a.74.74,0,0,1-.54-.23.81.81,0,0,1-.21-.55v-1a6.3,6.3,0,0,1-1.52,1.39,3.5,3.5,0,0,1-2,.58,5.86,5.86,0,0,1-2.3-.48,6.25,6.25,0,0,1-2-1.39,7,7,0,0,1-1.43-2.24,7.61,7.61,0,0,1-.56-3A8.1,8.1,0,0,1,220,10.3a7,7,0,0,1,1.37-2.25,6.18,6.18,0,0,1,2-1.45,5.65,5.65,0,0,1,2.41-.52,3.55,3.55,0,0,1,2.05.59A7,7,0,0,1,229.33,8V7a.73.73,0,0,1,.75-.76h2.85a.73.73,0,0,1,.75.76Zm-7.09-3.17a2.55,2.55,0,0,0,2-.86,3,3,0,0,0,.77-2.11,3.12,3.12,0,0,0-.77-2.16,2.55,2.55,0,0,0-2-.86,2.47,2.47,0,0,0-1.94.86,3.11,3.11,0,0,0-.76,2.16,3,3,0,0,0,.76,2.11A2.47,2.47,0,0,0,226.59,16.19Z"/><path d="M236.46.76a.7.7,0,0,1,.22-.54.7.7,0,0,1,.54-.22h2.84a.7.7,0,0,1,.54.22.7.7,0,0,1,.22.54V19.35a.74.74,0,0,1-.22.55.68.68,0,0,1-.54.24h-2.84a.68.68,0,0,1-.54-.24.74.74,0,0,1-.22-.55Z"/><path d="M152.51,37V47.43a.82.82,0,0,1-.79.79H149a.8.8,0,0,1-.79-.79V30.67a.79.79,0,0,1,.79-.79h3.5a.77.77,0,0,1,.67.35l5.1,7.59,5.11-7.59a.7.7,0,0,1,.64-.35h2.89a.8.8,0,0,1,.56.23.79.79,0,0,1,.23.56V47.43a.76.76,0,0,1-.23.55.77.77,0,0,1-.56.24h-2.74a.8.8,0,0,1-.79-.79V37L158,45.17Z"/><path d="M185.15,47.45a.8.8,0,0,1-.22.55.71.71,0,0,1-.54.24h-2.86A.68.68,0,0,1,181,48a.75.75,0,0,1-.22-.55v-1a6.55,6.55,0,0,1-1.52,1.4,3.51,3.51,0,0,1-2,.58,5.82,5.82,0,0,1-2.3-.48,6.11,6.11,0,0,1-2-1.4,7,7,0,0,1-1.45-2.25,7.66,7.66,0,0,1-.55-3,8.12,8.12,0,0,1,.51-2.93,7.08,7.08,0,0,1,1.37-2.26,6.25,6.25,0,0,1,2-1.46,5.69,5.69,0,0,1,2.42-.52,3.61,3.61,0,0,1,2.06.59,6.79,6.79,0,0,1,1.5,1.36v-1a.75.75,0,0,1,.76-.76h2.86a.75.75,0,0,1,.76.76ZM178,44.27a2.55,2.55,0,0,0,2-.86,3.09,3.09,0,0,0,.77-2.12,3.15,3.15,0,0,0-.77-2.17,2.55,2.55,0,0,0-2-.86,2.51,2.51,0,0,0-2,.86,3.19,3.19,0,0,0-.76,2.17,3.13,3.13,0,0,0,.76,2.12A2.51,2.51,0,0,0,178,44.27Z"/><path d="M201.42,48a.77.77,0,0,1-.54.22h-2.72a.77.77,0,0,1-.54-.22.76.76,0,0,1-.21-.54V40.56a2.61,2.61,0,0,0-.63-1.81,2.14,2.14,0,0,0-1.65-.7,2.2,2.2,0,0,0-.66.12,2.31,2.31,0,0,0-.68.35,2.23,2.23,0,0,0-.57.61,1.86,1.86,0,0,0-.28.94v7.41a.75.75,0,0,1-.76.76h-2.83a.75.75,0,0,1-.76-.76V35.08a.75.75,0,0,1,.76-.76h2.83a.75.75,0,0,1,.76.76V36.6a3.53,3.53,0,0,1,1.52-1.86,4.28,4.28,0,0,1,2.22-.65,4.53,4.53,0,0,1,3.63,1.56,6.4,6.4,0,0,1,1.33,4.27v7.56A.77.77,0,0,1,201.42,48Z"/><path d="M218.62,47.45a.75.75,0,0,1-.22.55.68.68,0,0,1-.54.24H215a.71.71,0,0,1-.54-.24.8.8,0,0,1-.22-.55v-1a6.5,6.5,0,0,1-1.51,1.4,3.57,3.57,0,0,1-2,.58,5.89,5.89,0,0,1-2.3-.48,6.11,6.11,0,0,1-2-1.4,7.13,7.13,0,0,1-1.44-2.25,7.66,7.66,0,0,1-.56-3,8.12,8.12,0,0,1,.51-2.93,7.08,7.08,0,0,1,1.37-2.26,6.36,6.36,0,0,1,2-1.46,5.72,5.72,0,0,1,2.42-.52,3.58,3.58,0,0,1,2.06.59,6.57,6.57,0,0,1,1.5,1.36v-1a.75.75,0,0,1,.76-.76h2.86a.75.75,0,0,1,.76.76Zm-7.12-3.18a2.53,2.53,0,0,0,2-.86,3,3,0,0,0,.77-2.12,3.1,3.1,0,0,0-.77-2.17,2.53,2.53,0,0,0-2-.86,2.48,2.48,0,0,0-1.95.86,3.14,3.14,0,0,0-.76,2.17,3.08,3.08,0,0,0,.76,2.12A2.48,2.48,0,0,0,211.5,44.27Z"/><path d="M235.43,47.24a8.22,8.22,0,0,1-.37,2.65,6.18,6.18,0,0,1-1,1.85,5.71,5.71,0,0,1-1.4,1.22,7.43,7.43,0,0,1-1.58.72,8.29,8.29,0,0,1-1.54.32c-.5,0-.92.07-1.27.07a9.66,9.66,0,0,1-2.91-.41A9,9,0,0,1,223,52.58a.92.92,0,0,1-.33-.43.71.71,0,0,1,.09-.62L224,49.61a.64.64,0,0,1,.51-.35,1,1,0,0,1,.57.11,6,6,0,0,0,1.22.6,4.66,4.66,0,0,0,1.7.28,3.1,3.1,0,0,0,2.3-.79,2.69,2.69,0,0,0,.79-2V45.67a4.65,4.65,0,0,1-1.48,1.38,3.85,3.85,0,0,1-2.05.54,6,6,0,0,1-2.15-.42,5.82,5.82,0,0,1-2-1.28A6.93,6.93,0,0,1,222,43.76a7.37,7.37,0,0,1-.55-3A7.1,7.1,0,0,1,222,38a7,7,0,0,1,1.4-2.1,6,6,0,0,1,1.94-1.31,5.65,5.65,0,0,1,2.19-.45,4.44,4.44,0,0,1,2.07.46,4,4,0,0,1,1.49,1.32V35a.73.73,0,0,1,.22-.54.7.7,0,0,1,.54-.22h2.83a.73.73,0,0,1,.54.22.76.76,0,0,1,.21.54Zm-4.34-6.59a2.57,2.57,0,0,0-2.57-2.42,2.56,2.56,0,0,0-1.84.74,2.59,2.59,0,1,0,4.41,2v-.32Z"/><path d="M248,44.06a1,1,0,0,1,.52-.16.66.66,0,0,1,.56.31l1.16,1.52a.72.72,0,0,1,.13.6,1,1,0,0,1-.3.48,7.88,7.88,0,0,1-2,1.16,6.82,6.82,0,0,1-2.73.53,7.49,7.49,0,0,1-2.87-.56,7.38,7.38,0,0,1-2.37-1.51,7,7,0,0,1-2.17-5.11,7.26,7.26,0,0,1,.55-2.84A7.47,7.47,0,0,1,240,36.17a6.74,6.74,0,0,1,2.21-1.53,6.55,6.55,0,0,1,2.67-.55,7.26,7.26,0,0,1,2.77.52,6.9,6.9,0,0,1,2.23,1.46,6.6,6.6,0,0,1,1.47,2.19,7,7,0,0,1,.53,2.74v.38a1.19,1.19,0,0,1-.18.51.66.66,0,0,1-.64.34h-8.93l.12.32a3,3,0,0,0,1.2,1.73,3.48,3.48,0,0,0,2.1.63,3.82,3.82,0,0,0,1.35-.22A3.46,3.46,0,0,0,248,44.06Zm-.44-4.55a3,3,0,0,0-1-1.49,2.81,2.81,0,0,0-3.26,0,3.08,3.08,0,0,0-1,1.49l-.12.35h5.46Z"/><path d="M261.75,38.43c-.2-.07-.39-.14-.59-.19a2.92,2.92,0,0,0-.61-.07,1.91,1.91,0,0,0-1.14.48,2.13,2.13,0,0,0-.7,1.56v7.24a.79.79,0,0,1-.21.55.71.71,0,0,1-.54.24H255.1a.68.68,0,0,1-.54-.24.75.75,0,0,1-.22-.55V35.05a.75.75,0,0,1,.76-.76H258a.73.73,0,0,1,.75.76v1.87a4.72,4.72,0,0,1,.4-.84,4.52,4.52,0,0,1,.7-.91,3.53,3.53,0,0,1,1-.73,2.57,2.57,0,0,1,1.25-.3,4.72,4.72,0,0,1,.77.06,2.1,2.1,0,0,1,.69.24.6.6,0,0,1,.38.45,1.09,1.09,0,0,1-.09.65l-1.11,2.54c-.1.28-.22.42-.36.44A1.28,1.28,0,0,1,261.75,38.43Z"/></svg>